<svg width="114" height="33" viewBox="0 0 114 33" fill="none" xmlns="http://www.w3.org/2000/svg">
<rect width="114" height="5" fill="#91A2CB"/>
<path d="M5.82422 23.7305L9.22266 9.9375H11.0625L11.1797 12.8438L7.54688 27H5.60156L5.82422 23.7305ZM3.67969 9.9375L6.46875 23.6836V27H4.34766L0.480469 9.9375H3.67969ZM14.707 23.625L17.4492 9.9375H20.6602L16.793 27H14.6719L14.707 23.625ZM11.9414 9.9375L15.3398 23.7773L15.5391 27H13.5938L9.97266 12.832L10.1133 9.9375H11.9414ZM21.5391 20.7891V20.543C21.5391 19.6133 21.6719 18.7578 21.9375 17.9766C22.2031 17.1875 22.5898 16.5039 23.0977 15.9258C23.6055 15.3477 24.2266 14.8984 24.9609 14.5781C25.6953 14.25 26.5312 14.0859 27.4688 14.0859C28.4219 14.0859 29.2656 14.25 30 14.5781C30.7422 14.8984 31.3672 15.3477 31.875 15.9258C32.3828 16.5039 32.7695 17.1875 33.0352 17.9766C33.3008 18.7578 33.4336 19.6133 33.4336 20.543V20.7891C33.4336 21.7109 33.3008 22.5664 33.0352 23.3555C32.7695 24.1367 32.3828 24.8203 31.875 25.4062C31.3672 25.9844 30.7461 26.4336 30.0117 26.7539C29.2773 27.0742 28.4375 27.2344 27.4922 27.2344C26.5547 27.2344 25.7148 27.0742 24.9727 26.7539C24.2305 26.4336 23.6055 25.9844 23.0977 25.4062C22.5898 24.8203 22.2031 24.1367 21.9375 23.3555C21.6719 22.5664 21.5391 21.7109 21.5391 20.7891ZM24.6328 20.543V20.7891C24.6328 21.3438 24.6875 21.8633 24.7969 22.3477C24.9062 22.832 25.0742 23.2578 25.3008 23.625C25.5273 23.9922 25.8203 24.2812 26.1797 24.4922C26.5469 24.6953 26.9844 24.7969 27.4922 24.7969C27.9922 24.7969 28.4219 24.6953 28.7812 24.4922C29.1406 24.2812 29.4336 23.9922 29.6602 23.625C29.8945 23.2578 30.0664 22.832 30.1758 22.3477C30.2852 21.8633 30.3398 21.3438 30.3398 20.7891V20.543C30.3398 19.9961 30.2852 19.4844 30.1758 19.0078C30.0664 18.5234 29.8945 18.0977 29.6602 17.7305C29.4336 17.3555 29.1367 17.0625 28.7695 16.8516C28.4102 16.6328 27.9766 16.5234 27.4688 16.5234C26.9688 16.5234 26.5391 16.6328 26.1797 16.8516C25.8203 17.0625 25.5273 17.3555 25.3008 17.7305C25.0742 18.0977 24.9062 18.5234 24.7969 19.0078C24.6875 19.4844 24.6328 19.9961 24.6328 20.543ZM38.7773 16.9102V27H35.6836V14.3203H38.6133L38.7773 16.9102ZM42.6328 14.2383L42.5859 17.1211C42.4141 17.0898 42.2188 17.0664 42 17.0508C41.7891 17.0352 41.5898 17.0273 41.4023 17.0273C40.9258 17.0273 40.5078 17.0938 40.1484 17.2266C39.7891 17.3516 39.4883 17.5352 39.2461 17.7773C39.0117 18.0195 38.832 18.3164 38.707 18.668C38.582 19.0117 38.5117 19.4023 38.4961 19.8398L37.8281 19.7578C37.8281 18.9531 37.9102 18.207 38.0742 17.5195C38.2383 16.832 38.4766 16.2305 38.7891 15.7148C39.1016 15.1992 39.4922 14.8008 39.9609 14.5195C40.4375 14.2305 40.9844 14.0859 41.6016 14.0859C41.7734 14.0859 41.957 14.1016 42.1523 14.1328C42.3555 14.1562 42.5156 14.1914 42.6328 14.2383ZM51.7031 24.3047V9H54.8203V27H52.0078L51.7031 24.3047ZM43.5586 20.8125V20.5664C43.5586 19.5977 43.668 18.7188 43.8867 17.9297C44.1133 17.1328 44.4414 16.4492 44.8711 15.8789C45.3008 15.3086 45.8203 14.8672 46.4297 14.5547C47.0469 14.2422 47.7461 14.0859 48.5273 14.0859C49.2852 14.0859 49.9453 14.2383 50.5078 14.543C51.0781 14.8477 51.5625 15.2812 51.9609 15.8438C52.3672 16.4062 52.6914 17.0742 52.9336 17.8477C53.1758 18.6133 53.3516 19.457 53.4609 20.3789V21.0469C53.3516 21.9453 53.1758 22.7695 52.9336 23.5195C52.6914 24.2695 52.3672 24.9258 51.9609 25.4883C51.5625 26.043 51.0781 26.4727 50.5078 26.7773C49.9375 27.082 49.2695 27.2344 48.5039 27.2344C47.7305 27.2344 47.0352 27.0742 46.418 26.7539C45.8086 26.4336 45.2891 25.9844 44.8594 25.4062C44.4375 24.8281 44.1133 24.1484 43.8867 23.3672C43.668 22.5859 43.5586 21.7344 43.5586 20.8125ZM46.6641 20.5664V20.8125C46.6641 21.3594 46.7109 21.8711 46.8047 22.3477C46.8984 22.8242 47.0508 23.2461 47.2617 23.6133C47.4727 23.9727 47.7422 24.2539 48.0703 24.457C48.4062 24.6602 48.8125 24.7617 49.2891 24.7617C49.8984 24.7617 50.3984 24.6289 50.7891 24.3633C51.1875 24.0898 51.4961 23.7188 51.7148 23.25C51.9336 22.7734 52.0742 22.2383 52.1367 21.6445V19.8047C52.1055 19.3359 52.0234 18.9023 51.8906 18.5039C51.7656 18.1055 51.5859 17.7617 51.3516 17.4727C51.125 17.1836 50.8438 16.957 50.5078 16.793C50.1719 16.6289 49.7734 16.5469 49.3125 16.5469C48.8359 16.5469 48.4297 16.6523 48.0938 16.8633C47.7578 17.0664 47.4844 17.3516 47.2734 17.7188C47.0625 18.0859 46.9062 18.5117 46.8047 18.9961C46.7109 19.4805 46.6641 20.0039 46.6641 20.5664ZM60.9023 9V27H57.7969V9H60.9023ZM69.5508 27.2344C68.5898 27.2344 67.7266 27.0781 66.9609 26.7656C66.1953 26.4531 65.543 26.0195 65.0039 25.4648C64.4727 24.9023 64.0625 24.25 63.7734 23.5078C63.4922 22.7578 63.3516 21.9531 63.3516 21.0938V20.625C63.3516 19.6484 63.4922 18.7617 63.7734 17.9648C64.0547 17.1602 64.4531 16.4688 64.9688 15.8906C65.4844 15.3125 66.1016 14.8672 66.8203 14.5547C67.5391 14.2422 68.332 14.0859 69.1992 14.0859C70.0977 14.0859 70.8906 14.2383 71.5781 14.543C72.2656 14.8398 72.8398 15.2617 73.3008 15.8086C73.7617 16.3555 74.1094 17.0117 74.3438 17.7773C74.5781 18.5352 74.6953 19.375 74.6953 20.2969V21.5977H64.7578V19.4648H71.6484V19.2305C71.6328 18.7383 71.5391 18.2891 71.3672 17.8828C71.1953 17.4688 70.9297 17.1406 70.5703 16.8984C70.2109 16.6484 69.7461 16.5234 69.1758 16.5234C68.7148 16.5234 68.3125 16.625 67.9688 16.8281C67.6328 17.0234 67.3516 17.3047 67.125 17.6719C66.9062 18.0312 66.7422 18.4609 66.6328 18.9609C66.5234 19.4609 66.4688 20.0156 66.4688 20.625V21.0938C66.4688 21.625 66.5391 22.1172 66.6797 22.5703C66.8281 23.0234 67.043 23.418 67.3242 23.7539C67.6133 24.082 67.957 24.3398 68.3555 24.5273C68.7617 24.707 69.2227 24.7969 69.7383 24.7969C70.3867 24.7969 70.9727 24.6719 71.4961 24.4219C72.0273 24.1641 72.4883 23.7852 72.8789 23.2852L74.4375 24.9023C74.1719 25.293 73.8125 25.668 73.3594 26.0273C72.9141 26.3867 72.375 26.6797 71.7422 26.9062C71.1094 27.125 70.3789 27.2344 69.5508 27.2344ZM79.8047 17.0273V27H76.7109V14.3203H79.6172L79.8047 17.0273ZM79.3125 20.2031H78.3984C78.4062 19.2812 78.5312 18.4453 78.7734 17.6953C79.0156 16.9453 79.3555 16.3008 79.793 15.7617C80.2383 15.2227 80.7656 14.8086 81.375 14.5195C81.9844 14.2305 82.6641 14.0859 83.4141 14.0859C84.0234 14.0859 84.5742 14.1719 85.0664 14.3438C85.5586 14.5156 85.9805 14.7891 86.332 15.1641C86.6914 15.5391 86.9648 16.0312 87.1523 16.6406C87.3477 17.2422 87.4453 17.9844 87.4453 18.8672V27H84.3281V18.8438C84.3281 18.2656 84.2422 17.8086 84.0703 17.4727C83.9062 17.1367 83.6641 16.8984 83.3438 16.7578C83.0312 16.6172 82.6445 16.5469 82.1836 16.5469C81.707 16.5469 81.2891 16.6445 80.9297 16.8398C80.5781 17.0273 80.2812 17.2891 80.0391 17.625C79.8047 17.9609 79.625 18.3477 79.5 18.7852C79.375 19.2227 79.3125 19.6953 79.3125 20.2031ZM97.1484 23.5312C97.1484 23.2656 97.0781 23.0273 96.9375 22.8164C96.7969 22.6055 96.5312 22.4141 96.1406 22.2422C95.7578 22.0625 95.1953 21.8945 94.4531 21.7383C93.7969 21.5977 93.1914 21.4219 92.6367 21.2109C92.082 21 91.6055 20.7461 91.207 20.4492C90.8086 20.1445 90.4961 19.7891 90.2695 19.3828C90.0508 18.9688 89.9414 18.4922 89.9414 17.9531C89.9414 17.4297 90.0547 16.9375 90.2812 16.4766C90.5078 16.0078 90.8359 15.5977 91.2656 15.2461C91.6953 14.8867 92.2188 14.6055 92.8359 14.4023C93.4531 14.1914 94.1484 14.0859 94.9219 14.0859C96 14.0859 96.9258 14.2617 97.6992 14.6133C98.4805 14.9648 99.0781 15.4492 99.4922 16.0664C99.9062 16.6758 100.113 17.3633 100.113 18.1289H97.0195C97.0195 17.793 96.9414 17.4883 96.7852 17.2148C96.6367 16.9414 96.4062 16.7227 96.0938 16.5586C95.7812 16.3867 95.3867 16.3008 94.9102 16.3008C94.4805 16.3008 94.1172 16.3711 93.8203 16.5117C93.5312 16.6523 93.3125 16.8359 93.1641 17.0625C93.0156 17.2891 92.9414 17.5391 92.9414 17.8125C92.9414 18.0156 92.9805 18.1992 93.0586 18.3633C93.1445 18.5195 93.2812 18.6641 93.4688 18.7969C93.6562 18.9297 93.9102 19.0508 94.2305 19.1602C94.5586 19.2695 94.9609 19.375 95.4375 19.4766C96.3828 19.6641 97.207 19.9141 97.9102 20.2266C98.6211 20.5312 99.1758 20.9375 99.5742 21.4453C99.9727 21.9531 100.172 22.6016 100.172 23.3906C100.172 23.9531 100.051 24.4688 99.8086 24.9375C99.5664 25.3984 99.2148 25.8008 98.7539 26.1445C98.293 26.4883 97.7422 26.7578 97.1016 26.9531C96.4609 27.1406 95.7383 27.2344 94.9336 27.2344C93.7695 27.2344 92.7852 27.0273 91.9805 26.6133C91.1758 26.1914 90.5664 25.6602 90.1523 25.0195C89.7383 24.3711 89.5312 23.6992 89.5312 23.0039H92.4961C92.5195 23.4961 92.6523 23.8906 92.8945 24.1875C93.1367 24.4844 93.4414 24.6992 93.8086 24.832C94.1836 24.957 94.5781 25.0195 94.9922 25.0195C95.4609 25.0195 95.8555 24.957 96.1758 24.832C96.4961 24.6992 96.7383 24.5234 96.9023 24.3047C97.0664 24.0781 97.1484 23.8203 97.1484 23.5312Z" fill="#91A2CB"/>
</svg>
